<?xml version="1.0" encoding="utf-8"?>
<!-- Generator: Adobe Illustrator 16.0.3, SVG Export Plug-In . SVG Version: 6.00 Build 0)  -->
<!DOCTYPE svg PUBLIC "-//W3C//DTD SVG 1.1//EN" "http://www.w3.org/Graphics/SVG/1.1/DTD/svg11.dtd">
<svg version="1.1" id="Capa_1" xmlns="http://www.w3.org/2000/svg" xmlns:xlink="http://www.w3.org/1999/xlink" x="0px" y="0px"
	 width="24px" height="24px" viewBox="0 0 24 24" enable-background="new 0 0 24 24" xml:space="preserve">
<path fill="none" d="M0,0h24v24H0V0z"/>
<path fill="#262626" d="M15.55,13c0.75,0,1.41-0.41,1.75-1.03l3.58-6.49C21.25,4.82,20.77,4,20.01,4H5.21L4.27,2H1v2h2l3.6,7.59
	l-1.35,2.439C4.52,15.37,5.48,17,7,17h12v-2H7l1.1-2H15.55z M6.16,6h12.15l-2.762,5H8.53L6.16,6z M7,18c-1.1,0-1.99,0.9-1.99,2
	S5.9,22,7,22s2-0.9,2-2S8.1,18,7,18z M17,18c-1.1,0-1.99,0.9-1.99,2S15.9,22,17,22s2-0.9,2-2S18.1,18,17,18z"/>
</svg>
