<?xml version="1.0" encoding="utf-8"?>
<!-- Generator: Adobe Illustrator 16.0.3, SVG Export Plug-In . SVG Version: 6.00 Build 0)  -->
<!DOCTYPE svg PUBLIC "-//W3C//DTD SVG 1.1//EN" "http://www.w3.org/Graphics/SVG/1.1/DTD/svg11.dtd">
<svg version="1.1" id="Capa_1" xmlns="http://www.w3.org/2000/svg" xmlns:xlink="http://www.w3.org/1999/xlink" x="0px" y="0px"
	 width="24px" height="24px" viewBox="0 0 24 24" enable-background="new 0 0 24 24" xml:space="preserve">
<path fill="none" d="M0,0h24v24H0V0z"/>
<path fill="#262626" d="M3,19l1.49,1.49l5-4.99v-0.79l0.27-0.28C10.9,15.41,12.38,16,13.99,16c3.59,0,6.5-2.91,6.5-6.5
	S17.58,3,13.99,3s-6.5,2.91-6.5,6.5c0,1.61,0.59,3.09,1.57,4.23L8.78,14H7.99L3,19z M9.49,9.5c0-2.49,2.01-4.5,4.5-4.5
	c2.489,0,4.5,2.01,4.5,4.5s-2.011,4.5-4.5,4.5C11.5,14,9.49,11.99,9.49,9.5z"/>
</svg>
